<?xml version="1.0" standalone="no"?><!DOCTYPE svg PUBLIC "-//W3C//DTD SVG 1.1//EN" "http://www.w3.org/Graphics/SVG/1.1/DTD/svg11.dtd"><svg t="1650343742130" class="icon" viewBox="0 0 1034 1024" version="1.1" xmlns="http://www.w3.org/2000/svg" p-id="9598" xmlns:xlink="http://www.w3.org/1999/xlink" width="201.953125" height="200"><defs><style type="text/css">@font-face { font-family: feedback-iconfont; src: url("//at.alicdn.com/t/font_1031158_u69w8yhxdu.woff2?t=1630033759944") format("woff2"), url("//at.alicdn.com/t/font_1031158_u69w8yhxdu.woff?t=1630033759944") format("woff"), url("//at.alicdn.com/t/font_1031158_u69w8yhxdu.ttf?t=1630033759944") format("truetype"); }
</style></defs><path d="M615.12666 101.3l95.4 193.5c10 20.3 29.4 34.3 51.7 37.6l213.5 31c56.3 8.2 78.8 77.4 38 117.1L859.32666 631.1a68.751 68.751 0 0 0-19.8 60.8l36.4 212.6c9.6 56.1-49.2 98.9-99.6 72.4L585.52666 876.4a68.75 68.75 0 0 0-63.9 0l-191 100.4c-50.4 26.5-109.2-16.3-99.6-72.4l36.4-212.6c3.8-22.3-3.5-45-19.8-60.8L93.32666 480.4c-40.7-39.7-18.3-108.9 38-117.1l213.5-31c22.3-3.3 41.7-17.3 51.7-37.6l95.4-193.5c25.3-50.9 98.1-50.9 123.2 0.1z" fill="#5ECEF4" p-id="9599"></path><path d="M180.22666 852.6c-0.8 0-1.6-0.1-2.5-0.2-7.8-1.3-13-8.7-11.7-16.5l10.3-60c1.3-7.8 8.7-13 16.5-11.7 7.8 1.3 13 8.7 11.7 16.5l-10.3 60c-1.2 7-7.3 11.9-14 11.9zM741.52666 994c-13.6 0-27.3-3.3-39.9-9.9l-184-96.7c-16.6-8.7-36.5-8.7-53.2 0l-184 96.7c-29.1 15.3-63.6 12.8-90.2-6.5s-39.6-51.4-34.1-83.8c1.3-7.8 8.7-13 16.5-11.7 7.8 1.3 13 8.7 11.7 16.5-3.8 21.9 4.7 42.8 22.7 55.9s40.5 14.7 60.1 4.3l184-96.7c25-13.1 54.8-13.1 79.7 0l184 96.7c19.6 10.3 42.2 8.7 60.1-4.3s26.5-33.9 22.7-55.9l-35.1-204.8c-4.7-27.8 4.5-56.1 24.6-75.9 5.7-5.5 14.7-5.4 20.2 0.3s5.4 14.7-0.3 20.2c-13.5 13.1-19.6 32-16.5 50.6l35.1 204.8c5.5 32.4-7.5 64.5-34.1 83.8-14.8 10.9-32.3 16.4-50 16.4zM838.12666 602.5c-3.7 0-7.4-1.4-10.2-4.3-5.5-5.7-5.4-14.7 0.3-20.2l71.1-69.3c5.7-5.5 14.7-5.4 20.2 0.3s5.4 14.7-0.3 20.2L848.12666 598.5c-2.8 2.7-6.4 4-10 4zM946.02666 497.3c-3.7 0-7.4-1.4-10.2-4.3-5.5-5.7-5.4-14.7 0.3-20.2 15.9-15.5 21.3-37.4 14.5-58.5-6.9-21.1-24.1-35.7-46.1-38.9l-205.7-29.9c-27.9-4.1-52-21.6-64.5-46.9l-92-186.3c-9.8-19.9-29-31.8-51.2-31.8-22.3 0-41.4 11.9-51.2 31.8l-44.9 91c-3.5 7.1-12.1 10-19.1 6.5-7.1-3.5-10-12.1-6.5-19.1l44.9-91c14.6-29.5 44-47.8 76.8-47.8s62.3 18.3 76.8 47.8l92 186.4c8.3 16.9 24.4 28.6 43 31.2l205.7 29.9c32.5 4.7 59 27.1 69.2 58.3s1.8 64.9-21.7 87.9c-2.9 2.6-6.5 3.9-10.1 3.9zM201.52666 728.1c-0.8 0-1.6-0.1-2.5-0.2-7.8-1.3-13-8.7-11.7-16.5l3.9-22.5c3.2-18.5-3-37.4-16.5-50.6l-148.8-145C2.42666 470.3-5.87334 436.7 4.22666 405.4c10.2-31.2 36.7-53.6 69.2-58.3L279.12666 317.2c18.6-2.7 34.7-14.4 43-31.2l16.6-33.5c3.5-7.1 12.1-10 19.1-6.5 7.1 3.5 10 12.1 6.5 19.1l-16.6 33.5a85.818 85.818 0 0 1-64.5 46.9L77.72666 375.4c-22 3.2-39.3 17.8-46.2 38.9-6.9 21.1-1.5 43.1 14.5 58.5l148.8 145c20.2 19.7 29.4 48 24.6 75.9l-3.9 22.5c-1.1 7-7.2 11.9-14 11.9z" fill="#231815" p-id="9600"></path><path d="M475.62666 256.3c-2.1 0-4.3-0.5-6.3-1.5-7.1-3.5-10-12.1-6.5-19.1l13.6-27.5c3.5-7.1 12.1-10 19.1-6.5 7.1 3.5 10 12.1 6.5 19.1l-13.6 27.5c-2.4 5.1-7.5 8-12.8 8zM363.42666 388c-7 0-13.1-5.1-14.1-12.2-1.1-7.8 4.3-15 12.1-16.2 15.1-2.2 33.8-9.2 46.4-17.5 4.8-3.1 8.7-7.7 11.4-13.1l26.8-54.3c3.5-7.1 12.1-10 19.1-6.5 7.1 3.5 10 12.1 6.5 19.1l-26.8 54.3c-5 10-12.3 18.4-21.4 24.3-16.1 10.5-38.8 19-57.9 21.8-0.7 0.2-1.4 0.3-2.1 0.3z" fill="#FFFFFF" p-id="9601"></path><path d="M723.32666 83.1c-6.2 3.2-9.4 9.5-7 14.1l45.9 88.9c2.3 4.6 9.3 5.7 15.5 2.5 6.2-3.2 9.4-9.5 7-14.1l-45.9-88.9c-2.4-4.7-9.3-5.8-15.5-2.5z" fill="#7CCBE2" p-id="9602"></path><path d="M697.82666 163c3.2 6.2 9.5 9.4 14.1 7l88.9-45.9c4.6-2.3 5.7-9.3 2.5-15.5-3.2-6.2-9.5-9.4-14.1-7l-88.9 45.9c-4.6 2.4-5.7 9.3-2.5 15.5z" fill="#7CCBE2" p-id="9603"></path><path d="M114.22666 252.7c-3.9 2-5.9 6-4.4 8.9l28.8 55.8c1.5 2.9 5.8 3.5 9.8 1.5 3.9-2 5.9-6 4.4-8.9l-28.8-55.8c-1.5-2.8-5.9-3.5-9.8-1.5z" fill="#DAB647" p-id="9604"></path><path d="M98.22666 302.9c2 3.9 6 5.9 8.9 4.4l55.8-28.8c2.9-1.5 3.5-5.8 1.5-9.8-2-3.9-6-5.9-8.9-4.4l-55.8 28.8c-2.8 1.5-3.5 5.9-1.5 9.8z" fill="#DAB647" p-id="9605"></path><path d="M913.17376 863.1122a24.4 24.4 0 1 0 34.506209-34.507414 24.4 24.4 0 1 0-34.506209 34.507414Z" fill="#EC7677" p-id="9606"></path><path d="M893.32666 280.6c-16.9 0-30.6-13.5-30.6-30.2s13.7-30.2 30.6-30.2 30.5 13.5 30.5 30.2-13.7 30.2-30.5 30.2z m0-52.5c-12.4 0-22.4 10-22.4 22.2s10.1 22.2 22.4 22.2 22.4-10 22.4-22.2-10-22.2-22.4-22.2z" fill="#E62A52" p-id="9607"></path><path d="M209.12666 165.9c-16.7 0-30.3-13.5-30.3-30s13.6-30 30.3-30 30.3 13.5 30.3 30-13.6 30-30.3 30z m0-52.2c-12.3 0-22.3 9.9-22.3 22.1s10 22.1 22.3 22.1 22.3-9.9 22.3-22.1-10-22.1-22.3-22.1z" fill="#D9554E" p-id="9608"></path></svg>